<svg width="22" height="28" viewBox="0 0 22 28" fill="none" xmlns="http://www.w3.org/2000/svg">
<path fill-rule="evenodd" clip-rule="evenodd" d="M0 26.8125C0 26.6302 0.072433 26.4553 0.201364 26.3264C0.330295 26.1974 0.505164 26.125 0.6875 26.125H21.3125C21.4948 26.125 21.6697 26.1974 21.7986 26.3264C21.9276 26.4553 22 26.6302 22 26.8125C22 26.9948 21.9276 27.1697 21.7986 27.2986C21.6697 27.4276 21.4948 27.5 21.3125 27.5H0.6875C0.505164 27.5 0.330295 27.4276 0.201364 27.2986C0.072433 27.1697 0 26.9948 0 26.8125Z" fill="#022B52"/>
<path fill-rule="evenodd" clip-rule="evenodd" d="M2.75 12.375V26.125H6.1875V12.375H2.75ZM2.0625 11C1.88016 11 1.7053 11.0724 1.57636 11.2014C1.44743 11.3303 1.375 11.5052 1.375 11.6875V26.8125C1.375 26.9948 1.44743 27.1697 1.57636 27.2986C1.7053 27.4276 1.88016 27.5 2.0625 27.5H6.875C7.05734 27.5 7.23221 27.4276 7.36114 27.2986C7.49007 27.1697 7.5625 26.9948 7.5625 26.8125V11.6875C7.5625 11.5052 7.49007 11.3303 7.36114 11.2014C7.23221 11.0724 7.05734 11 6.875 11H2.0625Z" fill="#022B52"/>
<path fill-rule="evenodd" clip-rule="evenodd" d="M6.1875 0L17.1875 4.125V13.75H15.8125V5.07787L7.5625 1.98413V26.125H13.0625C13.0625 26.3073 13.1349 26.4822 13.2639 26.6111C13.3928 26.7401 13.5677 26.8125 13.75 26.8125H17.1875V27.5H6.1875V0Z" fill="#022B52"/>
<path d="M8.25 6.1875H9.625V7.5625H8.25V6.1875Z" fill="#022B52"/>
<path d="M11 6.1875H12.375V7.5625H11V6.1875Z" fill="#022B52"/>
<path d="M13.75 6.1875H15.125V7.5625H13.75V6.1875Z" fill="#022B52"/>
<path d="M8.25 8.9375H9.625V10.3125H8.25V8.9375Z" fill="#022B52"/>
<path d="M11 8.9375H12.375V10.3125H11V8.9375Z" fill="#022B52"/>
<path d="M13.75 8.9375H15.125V10.3125H13.75V8.9375Z" fill="#022B52"/>
<path d="M8.25 11.6875H9.625V13.0625H8.25V11.6875Z" fill="#022B52"/>
<path d="M11 11.6875H12.375V13.0625H11V11.6875Z" fill="#022B52"/>
<path d="M13.75 11.6875H15.125V13.0625H13.75V11.6875Z" fill="#022B52"/>
<path d="M8.25 14.4375H9.625V15.8125H8.25V14.4375Z" fill="#022B52"/>
<path d="M11 14.4375H12.375V15.8125H11V14.4375Z" fill="#022B52"/>
<path d="M8.25 17.1875H9.625V18.5625H8.25V17.1875Z" fill="#022B52"/>
<path d="M11 17.1875H12.375V18.5625H11V17.1875Z" fill="#022B52"/>
<path d="M8.25 19.9375H9.625V21.3125H8.25V19.9375Z" fill="#022B52"/>
<path d="M11 19.9375H12.375V21.3125H11V19.9375Z" fill="#022B52"/>
<path d="M8.25 22.6875H9.625V24.0625H8.25V22.6875Z" fill="#022B52"/>
<path d="M11 22.6875H12.375V24.0625H11V22.6875Z" fill="#022B52"/>
<path fill-rule="evenodd" clip-rule="evenodd" d="M14.4375 15.125V26.125H19.25V15.125H14.4375ZM13.75 13.75C13.5677 13.75 13.3928 13.8224 13.2639 13.9514C13.1349 14.0803 13.0625 14.2552 13.0625 14.4375V26.8125C13.0625 26.9948 13.1349 27.1697 13.2639 27.2986C13.3928 27.4276 13.5677 27.5 13.75 27.5H19.9375C20.1198 27.5 20.2947 27.4276 20.4236 27.2986C20.5526 27.1697 20.625 26.9948 20.625 26.8125V14.4375C20.625 14.2552 20.5526 14.0803 20.4236 13.9514C20.2947 13.8224 20.1198 13.75 19.9375 13.75H13.75Z" fill="#022B52"/>
<path fill-rule="evenodd" clip-rule="evenodd" d="M17.875 17.875H15.8125V16.5H17.875V17.875Z" fill="#022B52"/>
<path fill-rule="evenodd" clip-rule="evenodd" d="M17.875 20.625H15.8125V19.25H17.875V20.625Z" fill="#022B52"/>
<path fill-rule="evenodd" clip-rule="evenodd" d="M17.875 23.375H15.8125V22H17.875V23.375Z" fill="#022B52"/>
<path fill-rule="evenodd" clip-rule="evenodd" d="M17.875 26.125H15.8125V24.75H17.875V26.125Z" fill="#022B52"/>
<path fill-rule="evenodd" clip-rule="evenodd" d="M4.8125 6.1875V12.375H3.4375V6.1875H4.8125Z" fill="#022B52"/>
</svg>
