<?xml version="1.0" encoding="UTF-8" standalone="no"?>
<!DOCTYPE svg PUBLIC "-//W3C//DTD SVG 1.1//EN" "http://www.w3.org/Graphics/SVG/1.1/DTD/svg11.dtd">
<svg width="100%" height="100%" viewBox="0 0 22 22" version="1.1" xmlns="http://www.w3.org/2000/svg" xmlns:xlink="http://www.w3.org/1999/xlink" xml:space="preserve" xmlns:serif="http://www.serif.com/" style="fill-rule:evenodd;clip-rule:evenodd;stroke-linejoin:round;stroke-miterlimit:2;">
    <circle cx="10.5" cy="10.5" r="9.5" style="fill:white;"/>
    <path d="M11,0C17.083,0 22,4.917 22,11C22,17.083 17.083,22 11,22C4.917,22 0,17.083 0,11C0,4.917 4.917,0 11,0ZM16.5,5.5L13.75,5.5L12.65,4.4L9.35,4.4L8.25,5.5L5.5,5.5L5.5,7.7L16.5,7.7L16.5,5.5ZM7.7,17.6L14.3,17.6C14.592,17.6 14.871,17.484 15.078,17.278C15.284,17.072 15.4,16.792 15.4,16.5L15.4,8.8L6.6,8.8L6.6,16.5C6.6,16.792 6.716,17.072 6.922,17.278C7.128,17.484 7.408,17.6 7.7,17.6Z" style="fill:rgb(223,9,33);fill-rule:nonzero;"/>
</svg>
