<?xml version="1.0" encoding="UTF-8" standalone="no"?>
<!DOCTYPE svg PUBLIC "-//W3C//DTD SVG 1.1//EN" "http://www.w3.org/Graphics/SVG/1.1/DTD/svg11.dtd">
<svg width="100%" height="100%" viewBox="0 0 21 21" version="1.1" xmlns="http://www.w3.org/2000/svg" xmlns:xlink="http://www.w3.org/1999/xlink" xml:space="preserve" xmlns:serif="http://www.serif.com/" style="fill-rule:evenodd;clip-rule:evenodd;stroke-linejoin:round;stroke-miterlimit:2;">
    <path d="M11.938,3.078L16.999,8.138L16.037,9.1C15.096,9.022 14.149,9.15 13.262,9.475C12.376,9.8 11.57,10.314 10.903,10.982C10.235,11.65 9.721,12.455 9.396,13.342C9.071,14.228 8.943,15.175 9.021,16.116L7.061,18.076C6.784,18.354 6.439,18.554 6.061,18.656L0.946,20.051C0.819,20.086 0.684,20.086 0.557,20.052C0.429,20.018 0.313,19.951 0.22,19.858C0.126,19.765 0.059,19.648 0.025,19.521C-0.009,19.393 -0.008,19.259 0.026,19.131L1.42,14.015C1.523,13.637 1.723,13.293 2,13.015L11.938,3.078ZM19.029,1.048C19.7,1.72 20.077,2.63 20.077,3.578C20.077,4.527 19.7,5.437 19.029,6.108L18.059,7.078L12.998,2.018L13.968,1.048C14.3,0.716 14.695,0.452 15.129,0.272C15.563,0.093 16.029,0 16.499,0C16.969,0 17.434,0.093 17.868,0.272C18.302,0.452 18.697,0.716 19.029,1.048ZM12.278,12.052C12.353,12.311 12.375,12.582 12.342,12.849C12.31,13.117 12.224,13.375 12.089,13.608C11.955,13.841 11.774,14.044 11.559,14.206C11.344,14.368 11.098,14.485 10.837,14.549L10.253,14.693C10.16,15.292 10.162,15.902 10.259,16.5L10.799,16.63C11.063,16.694 11.311,16.81 11.528,16.973C11.745,17.135 11.927,17.34 12.063,17.574C12.198,17.809 12.285,18.069 12.317,18.338C12.349,18.608 12.326,18.88 12.249,19.14L12.062,19.772C12.502,20.158 13.002,20.471 13.546,20.693L14.04,20.175C14.227,19.979 14.452,19.822 14.701,19.716C14.95,19.609 15.218,19.554 15.49,19.554C15.761,19.554 16.029,19.609 16.278,19.716C16.527,19.822 16.752,19.979 16.939,20.175L17.437,20.7C17.979,20.48 18.48,20.172 18.92,19.787L18.722,19.101C18.648,18.843 18.626,18.572 18.659,18.305C18.691,18.038 18.777,17.78 18.912,17.547C19.047,17.314 19.227,17.11 19.442,16.948C19.657,16.787 19.903,16.67 20.164,16.605L20.747,16.461C20.841,15.862 20.839,15.252 20.741,14.653L20.201,14.523C19.938,14.46 19.69,14.344 19.472,14.181C19.255,14.019 19.073,13.814 18.938,13.58C18.802,13.345 18.716,13.085 18.684,12.816C18.651,12.546 18.674,12.274 18.751,12.013L18.938,11.383C18.498,10.996 17.997,10.684 17.454,10.46L16.961,10.979C16.774,11.176 16.549,11.333 16.3,11.44C16.051,11.547 15.782,11.602 15.511,11.602C15.24,11.602 14.971,11.547 14.722,11.44C14.473,11.333 14.248,11.176 14.061,10.979L13.563,10.454C13.019,10.674 12.519,10.984 12.08,11.366L12.278,12.052ZM15.499,17.078C14.699,17.078 14.049,16.406 14.049,15.578C14.049,14.749 14.699,14.078 15.499,14.078C16.299,14.078 16.949,14.749 16.949,15.578C16.949,16.406 16.299,17.078 15.499,17.078Z" style="fill:rgb(2,43,82);fill-rule:nonzero;"/>
</svg>
