<svg width="25" height="25" viewBox="0 0 25 25" fill="none" xmlns="http://www.w3.org/2000/svg">
<path d="M18.1189 6.38143C18.0041 6.26651 17.8595 6.18584 17.7014 6.14844C17.5434 6.11104 17.378 6.11839 17.2238 6.16968L9.34882 8.79468C9.21984 8.83768 9.10265 8.91011 9.00651 9.00625C8.91038 9.10238 8.83794 9.21958 8.79494 9.34855L6.16994 17.2236C6.11853 17.3777 6.11107 17.5432 6.14839 17.7013C6.18572 17.8595 6.26636 18.0042 6.38128 18.1191C6.4962 18.234 6.64085 18.3146 6.79903 18.352C6.9572 18.3893 7.12264 18.3818 7.27682 18.3304L15.1518 15.7054C15.2808 15.6624 15.398 15.59 15.4941 15.4939C15.5903 15.3977 15.6627 15.2805 15.7057 15.1516L18.3307 7.27655C18.382 7.1224 18.3893 6.95701 18.3519 6.79892C18.3145 6.64082 18.2339 6.49626 18.1189 6.38143ZM8.38369 16.1176L10.3174 10.3181L14.1841 14.1847L8.38369 16.1176Z" fill="#DF0921"/>
<path d="M12.25 24.5C9.82718 24.5 7.45877 23.7816 5.44427 22.4355C3.42977 21.0895 1.85965 19.1763 0.932481 16.9379C0.00530772 14.6995 -0.237283 12.2364 0.235386 9.86015C0.708055 7.48388 1.87475 5.30114 3.58795 3.58795C5.30114 1.87475 7.48388 0.708055 9.86015 0.235386C12.2364 -0.237283 14.6995 0.00530772 16.9379 0.932481C19.1763 1.85965 21.0895 3.42977 22.4355 5.44427C23.7816 7.45877 24.5 9.82718 24.5 12.25C24.4963 15.4978 23.2045 18.6115 20.908 20.908C18.6115 23.2045 15.4978 24.4963 12.25 24.5ZM12.25 1.75001C10.1733 1.75001 8.14323 2.36582 6.41652 3.51957C4.6898 4.67333 3.34399 6.31321 2.54927 8.23183C1.75455 10.1505 1.54662 12.2617 1.95176 14.2985C2.3569 16.3353 3.35693 18.2062 4.82538 19.6746C6.29384 21.1431 8.16476 22.1431 10.2016 22.5483C12.2384 22.9534 14.3496 22.7455 16.2682 21.9507C18.1868 21.156 19.8267 19.8102 20.9804 18.0835C22.1342 16.3568 22.75 14.3267 22.75 12.25C22.7468 9.46623 21.6395 6.79739 19.671 4.82896C17.7026 2.86054 15.0338 1.75325 12.25 1.75001Z" fill="#DF0921"/>
</svg>
