<svg width="21" height="21" viewBox="0 0 21 21" fill="none" xmlns="http://www.w3.org/2000/svg">
<path d="M6.75501 19.0577C8.30994 20.3154 10.2501 21 12.25 20.9967C13.5695 20.9967 14.8225 20.7044 15.9478 20.1794L19.9535 20.9792C20.0946 21.0073 20.2405 21.0001 20.3783 20.9584C20.516 20.9166 20.6413 20.8415 20.7431 20.7398C20.8448 20.638 20.9199 20.5127 20.9617 20.375C21.0034 20.2372 21.0106 20.0913 20.9825 19.9502L20.1828 15.9462C20.7078 14.8209 21 13.5662 21 12.2467C21 10.1659 20.2738 8.2567 19.061 6.75345C19.31 8.04905 19.3142 9.37982 19.0733 10.6769C19.4402 12.2805 19.2327 13.9619 18.487 15.4282C18.3971 15.604 18.3694 15.8051 18.4083 15.9987L19.0103 19.0069L16.0003 18.4049C15.8072 18.3665 15.6068 18.3942 15.4315 18.4837C13.965 19.2305 12.2826 19.4381 10.6785 19.0699C9.3814 19.3111 8.05058 19.307 6.75501 19.0577ZM8.12274e-06 8.7467C0.000721851 6.85326 0.615602 5.01114 1.75234 3.49689C2.88907 1.98265 4.48632 0.877984 6.3043 0.34875C8.12227 -0.180484 10.0629 -0.105732 11.8347 0.561782C13.6066 1.2293 15.1142 2.45355 16.131 4.05076C17.1479 5.64796 17.6193 7.53193 17.4743 9.41981C17.3294 11.3077 16.576 13.0976 15.3272 14.5209C14.0784 15.9441 12.4017 16.9239 10.5486 17.3131C8.69564 17.7024 6.76638 17.48 5.05051 16.6794L1.04651 17.4792C0.90536 17.5073 0.759459 17.5001 0.621735 17.4584C0.484011 17.4166 0.358715 17.3415 0.25695 17.2398C0.155184 17.138 0.0800918 17.0127 0.0383255 16.875C-0.00344079 16.7372 -0.0105913 16.5913 0.0175081 16.4502L0.817258 12.4444C0.277259 11.2866 -0.00173551 10.0243 8.12274e-06 8.7467ZM8.75 12.0367C8.45992 12.0367 8.18172 12.1519 7.97661 12.357C7.77149 12.5622 7.65626 12.8404 7.65626 13.1304C7.65626 13.4205 7.77149 13.6987 7.97661 13.9038C8.18172 14.109 8.45992 14.2242 8.75 14.2242C9.04008 14.2242 9.31828 14.109 9.5234 13.9038C9.72852 13.6987 9.84375 13.4205 9.84375 13.1304C9.84375 12.8404 9.72852 12.5622 9.5234 12.357C9.31828 12.1519 9.04008 12.0367 8.75 12.0367ZM8.75 3.50195C6.91601 3.50195 5.48801 4.93345 5.50726 6.9232C5.50958 7.15527 5.60399 7.3769 5.76972 7.53936C5.93546 7.70181 6.15894 7.79177 6.39101 7.78945C6.62307 7.78713 6.84471 7.69272 7.00716 7.52698C7.16961 7.36125 7.25958 7.13776 7.25726 6.9057C7.24676 5.89245 7.88726 5.25195 8.75 5.25195C9.576 5.25195 10.2428 5.93795 10.2428 6.91445C10.2428 7.26795 10.1203 7.4657 9.61275 7.86645L9.12801 8.2427C8.24251 8.9497 7.87501 9.49745 7.87501 10.4967C7.8746 10.7154 7.95608 10.9262 8.10339 11.0878C8.25071 11.2494 8.45318 11.35 8.67094 11.3697C8.8887 11.3895 9.10597 11.327 9.27996 11.1946C9.45395 11.0621 9.57205 10.8694 9.611 10.6542L9.63025 10.3812C9.66 10.1222 9.80525 9.9367 10.2358 9.5972L10.7205 9.22095C11.6183 8.50345 11.9928 7.93995 11.9928 6.91445C11.9928 4.98245 10.5543 3.50195 8.75 3.50195Z" fill="#022B52"/>
</svg>
