<?xml version="1.0" encoding="UTF-8" standalone="no"?>
<!DOCTYPE svg PUBLIC "-//W3C//DTD SVG 1.1//EN" "http://www.w3.org/Graphics/SVG/1.1/DTD/svg11.dtd">
<svg width="100%" height="100%" viewBox="0 0 16 14" version="1.1" xmlns="http://www.w3.org/2000/svg" xmlns:xlink="http://www.w3.org/1999/xlink" xml:space="preserve" xmlns:serif="http://www.serif.com/" style="fill-rule:evenodd;clip-rule:evenodd;stroke-linejoin:round;stroke-miterlimit:2;">
    <path d="M15.501,1.976C14.831,0.642 12.901,-0.449 10.655,0.186C9.582,0.486 8.646,1.131 8,2.014C7.354,1.131 6.417,0.486 5.345,0.186C3.094,-0.44 1.169,0.642 0.499,1.976C-0.441,3.843 -0.051,5.943 1.659,8.218C2.999,9.998 4.914,11.802 7.695,13.897C7.783,13.964 7.891,14 8.002,14C8.114,14 8.222,13.964 8.31,13.897C11.085,11.807 13.006,10.017 14.346,8.218C16.051,5.943 16.441,3.843 15.501,1.976Z" style="fill:rgb(88,88,88);fill-rule:nonzero;"/>
</svg>
