<?xml version="1.0" encoding="UTF-8" standalone="no"?>
<!DOCTYPE svg PUBLIC "-//W3C//DTD SVG 1.1//EN" "http://www.w3.org/Graphics/SVG/1.1/DTD/svg11.dtd">
<svg width="100%" height="100%" viewBox="0 0 17 13" version="1.1" xmlns="http://www.w3.org/2000/svg" xmlns:xlink="http://www.w3.org/1999/xlink" xml:space="preserve" xmlns:serif="http://www.serif.com/" style="fill-rule:evenodd;clip-rule:evenodd;stroke-linejoin:round;stroke-miterlimit:2;">
    <path d="M4.857,10.929C4.857,10.768 4.921,10.613 5.035,10.499C5.149,10.385 5.303,10.321 5.464,10.321L16.393,10.321C16.554,10.321 16.708,10.385 16.822,10.499C16.936,10.613 17,10.768 17,10.929C17,11.09 16.936,11.244 16.822,11.358C16.708,11.472 16.554,11.536 16.393,11.536L5.464,11.536C5.303,11.536 5.149,11.472 5.035,11.358C4.921,11.244 4.857,11.09 4.857,10.929ZM4.857,6.071C4.857,5.91 4.921,5.756 5.035,5.642C5.149,5.528 5.303,5.464 5.464,5.464L16.393,5.464C16.554,5.464 16.708,5.528 16.822,5.642C16.936,5.756 17,5.91 17,6.071C17,6.232 16.936,6.387 16.822,6.501C16.708,6.615 16.554,6.679 16.393,6.679L5.464,6.679C5.303,6.679 5.149,6.615 5.035,6.501C4.921,6.387 4.857,6.232 4.857,6.071ZM4.857,1.214C4.857,1.053 4.921,0.899 5.035,0.785C5.149,0.671 5.303,0.607 5.464,0.607L16.393,0.607C16.554,0.607 16.708,0.671 16.822,0.785C16.936,0.899 17,1.053 17,1.214C17,1.375 16.936,1.53 16.822,1.644C16.708,1.757 16.554,1.821 16.393,1.821L5.464,1.821C5.303,1.821 5.149,1.757 5.035,1.644C4.921,1.53 4.857,1.375 4.857,1.214ZM1.214,2.429C1.536,2.429 1.845,2.301 2.073,2.073C2.301,1.845 2.429,1.536 2.429,1.214C2.429,0.892 2.301,0.583 2.073,0.356C1.845,0.128 1.536,0 1.214,0C0.892,0 0.583,0.128 0.356,0.356C0.128,0.583 0,0.892 0,1.214C0,1.536 0.128,1.845 0.356,2.073C0.583,2.301 0.892,2.429 1.214,2.429ZM1.214,7.286C1.536,7.286 1.845,7.158 2.073,6.93C2.301,6.702 2.429,6.393 2.429,6.071C2.429,5.749 2.301,5.441 2.073,5.213C1.845,4.985 1.536,4.857 1.214,4.857C0.892,4.857 0.583,4.985 0.356,5.213C0.128,5.441 0,5.749 0,6.071C0,6.393 0.128,6.702 0.356,6.93C0.583,7.158 0.892,7.286 1.214,7.286ZM1.214,12.143C1.536,12.143 1.845,12.015 2.073,11.787C2.301,11.56 2.429,11.251 2.429,10.929C2.429,10.607 2.301,10.298 2.073,10.07C1.845,9.842 1.536,9.714 1.214,9.714C0.892,9.714 0.583,9.842 0.356,10.07C0.128,10.298 0,10.607 0,10.929C0,11.251 0.128,11.56 0.356,11.787C0.583,12.015 0.892,12.143 1.214,12.143Z" style="fill:rgb(90,90,90);"/>
</svg>
