<svg width="23" height="21" viewBox="0 0 23 21" fill="none" xmlns="http://www.w3.org/2000/svg">
<path d="M22.2827 2.96345C21.3194 0.96274 18.5446 -0.674204 15.317 0.278861C13.7746 0.72974 12.429 1.69666 11.4998 3.02165C10.5707 1.69666 9.22505 0.72974 7.68272 0.278861C4.44787 -0.659653 1.68027 0.96274 0.717005 2.96345C-0.634444 5.76444 -0.073736 8.91465 2.38475 12.3268C4.31128 14.9968 7.0645 17.7032 11.0613 20.8461C11.1876 20.9459 11.3432 21 11.5034 21C11.6636 21 11.8192 20.9459 11.9455 20.8461C15.9352 17.7105 18.6956 15.0259 20.6221 12.3268C23.0734 8.91465 23.6341 5.76444 22.2827 2.96345Z" fill="#022B52"/>
</svg>
