<?xml version="1.0" encoding="UTF-8" standalone="no"?>
<!DOCTYPE svg PUBLIC "-//W3C//DTD SVG 1.1//EN" "http://www.w3.org/Graphics/SVG/1.1/DTD/svg11.dtd">
<svg width="100%" height="100%" viewBox="0 0 23 23" version="1.1" xmlns="http://www.w3.org/2000/svg" xmlns:xlink="http://www.w3.org/1999/xlink" xml:space="preserve" xmlns:serif="http://www.serif.com/" style="fill-rule:evenodd;clip-rule:evenodd;stroke-linejoin:round;stroke-miterlimit:2;">
    <path d="M0,11.158C-0,9.692 0.289,8.241 0.849,6.888C1.41,5.534 2.232,4.304 3.268,3.268C4.304,2.232 5.534,1.41 6.888,0.849C8.241,0.289 9.692,0 11.158,0C12.623,0 14.074,0.289 15.427,0.849C16.781,1.41 18.011,2.232 19.047,3.268C20.083,4.304 20.905,5.534 21.466,6.888C22.026,8.241 22.315,9.692 22.315,11.158C22.315,14.117 21.14,16.955 19.047,19.047C16.955,21.14 14.117,22.315 11.158,22.315C8.198,22.315 5.36,21.14 3.268,19.047C1.176,16.955 0,14.117 0,11.158ZM11.158,5.579C10.911,5.579 10.675,5.677 10.5,5.851C10.326,6.025 10.228,6.262 10.228,6.509L10.228,10.228L6.509,10.228C6.262,10.228 6.025,10.326 5.851,10.5C5.677,10.675 5.579,10.911 5.579,11.158C5.579,11.404 5.677,11.641 5.851,11.815C6.025,11.989 6.262,12.087 6.509,12.087L10.228,12.087L10.228,15.807C10.228,16.053 10.326,16.29 10.5,16.464C10.675,16.638 10.911,16.736 11.158,16.736C11.404,16.736 11.641,16.638 11.815,16.464C11.989,16.29 12.087,16.053 12.087,15.807L12.087,12.087L15.807,12.087C16.053,12.087 16.29,11.989 16.464,11.815C16.638,11.641 16.736,11.404 16.736,11.158C16.736,10.911 16.638,10.675 16.464,10.5C16.29,10.326 16.053,10.228 15.807,10.228L12.087,10.228L12.087,6.509C12.087,6.262 11.989,6.025 11.815,5.851C11.641,5.677 11.404,5.579 11.158,5.579Z" style="fill:rgb(223,9,33);fill-rule:nonzero;"/>
</svg>
