<svg width="26" height="25" viewBox="0 0 26 25" fill="none" xmlns="http://www.w3.org/2000/svg">
<path d="M25.6015 22.4906L19.7074 16.8232C21.1265 15.0068 21.8925 12.7958 21.8899 10.524C21.8899 4.7211 16.98 0 10.945 0C4.90995 0 0 4.7211 0 10.524C0 16.3269 4.90995 21.048 10.945 21.048C13.3076 21.0505 15.6071 20.3139 17.4961 18.9495L23.3902 24.6168C23.6886 24.8733 24.0777 25.0102 24.4777 24.9994C24.8778 24.9886 25.2583 24.831 25.5413 24.5589C25.8243 24.2869 25.9882 23.9209 25.9994 23.5363C26.0106 23.1516 25.8682 22.7775 25.6015 22.4906ZM3.12713 10.524C3.12713 9.03725 3.58564 7.58389 4.44467 6.3477C5.30371 5.11151 6.52468 4.14802 7.95321 3.57907C9.38173 3.01011 10.9536 2.86125 12.4701 3.1513C13.9867 3.44135 15.3797 4.15729 16.473 5.20858C17.5663 6.25987 18.3109 7.5993 18.6126 9.05748C18.9142 10.5157 18.7594 12.0271 18.1677 13.4007C17.576 14.7743 16.5739 15.9483 15.2883 16.7743C14.0027 17.6003 12.4912 18.0411 10.945 18.0411C8.87231 18.0387 6.88526 17.246 5.41967 15.8368C3.95408 14.4276 3.12962 12.5169 3.12713 10.524Z" fill="#022B52"/>
</svg>
